<?xml version="1.0" standalone="no"?>
<!DOCTYPE svg PUBLIC "-//W3C//DTD SVG 20010904//EN"
 "http://www.w3.org/TR/2001/REC-SVG-20010904/DTD/svg10.dtd">
<svg  version="1.0" xmlns="http://www.w3.org/2000/svg"
 width="108px" height="60px" viewBox="0 0 108.000000 60.000000"
 preserveAspectRatio="xMidYMid meet" style="color: #0086b0;">

<g transform="translate(0.000000,60.000000) scale(0.100000,-0.100000)"
stroke="currentColor" fill="currentColor">
<path d="M477 589 c-93 -22 -192 -108 -216 -188 l-12 -41 -124 0 -125 0 0 -60
0 -60 124 0 123 0 17 -43 c36 -95 106 -157 205 -183 160 -40 315 53 357 215
40 158 -53 314 -212 356 -64 17 -81 17 -137 4z m136 -123 c117 -50 144 -210
51 -298 -36 -33 -74 -48 -125 -48 -139 0 -222 145 -156 270 41 77 146 112 230
76z"/>
<path d="M960 300 l0 -60 60 0 60 0 0 60 0 60 -60 0 -60 0 0 -60z"/>
</g>
</svg>
